<?xml version="1.0" standalone="no"?>
<!DOCTYPE svg PUBLIC "-//W3C//DTD SVG 20010904//EN"
 "http://www.w3.org/TR/2001/REC-SVG-20010904/DTD/svg10.dtd">
<svg version="1.0" xmlns="http://www.w3.org/2000/svg"
 width="260.000000pt" height="260.000000pt" viewBox="0 0 260.000000 260.000000"
 preserveAspectRatio="xMidYMid meet">
<metadata>
Created by potrace 1.14, written by Peter Selinger 2001-2017
</metadata>
<g transform="translate(0.000000,260.000000) scale(0.100000,-0.100000)"
fill="#000000" stroke="none">
<path d="M1219 2253 c-105 -52 -247 -215 -455 -523 -53 -80 -99 -147 -101
-149 -20 -25 -203 14 -348 74 -84 35 -115 33 -115 -5 0 -17 56 -70 74 -70 26
0 250 -161 260 -186 3 -8 -9 -45 -28 -82 -89 -178 -90 -290 -3 -342 36 -22
101 -26 133 -7 131 77 165 220 88 374 -34 67 -36 75 -24 103 7 17 20 34 29 39
9 4 70 8 136 10 66 1 153 4 193 6 58 4 72 2 72 -10 0 -15 -37 -118 -64 -178
-8 -17 -52 -131 -99 -252 -240 -620 -248 -645 -208 -695 43 -54 166 -21 207
56 17 31 17 33 -9 64 -22 25 -26 38 -21 68 11 74 74 301 119 427 26 72 70 198
100 280 29 83 62 171 75 197 24 51 21 50 182 102 l77 24 -6 -133 c-5 -111 -3
-142 11 -187 35 -105 106 -145 197 -110 35 14 104 82 174 170 78 100 222 242
245 242 10 0 31 -11 47 -23 15 -13 40 -27 54 -30 41 -10 189 52 189 79 0 21
-23 22 -77 2 -78 -28 -89 -29 -125 -2 -57 41 -94 55 -122 44 -29 -11 -144
-124 -256 -250 -132 -150 -162 -170 -200 -135 -67 60 -48 297 48 600 23 76 15
111 -30 120 -28 6 -36 2 -85 -48 -55 -54 -55 -54 -38 -80 9 -14 14 -34 11 -44
-3 -10 -8 -36 -12 -57 -11 -74 -15 -78 -100 -102 -132 -39 -129 -42 -88 76 51
150 103 361 106 433 2 47 -2 70 -15 90 -35 54 -113 62 -198 20z m117 -125 c2
-69 -80 -353 -139 -476 -32 -68 -66 -77 -354 -86 -72 -2 -81 -1 -73 13 18 35
226 330 278 396 75 94 177 194 216 210 46 20 71 1 72 -57z m-763 -619 c20 -5
37 -14 37 -19 0 -19 -20 -19 -54 1 -53 31 -48 36 17 18z m78 -231 c22 -52 15
-142 -12 -183 -26 -38 -63 -52 -86 -34 -27 23 2 148 53 227 20 30 29 28 45
-10z"/>
</g>
</svg>
