<svg width="52" height="22" viewBox="0 0 52 22" fill="none" xmlns="http://www.w3.org/2000/svg">
<circle cx="11" cy="11" r="11" fill="#F15640"/>
<path d="M22.0006 11.0001C22.0006 9.64689 21.7442 8.3562 21.2973 7.15902C21.179 11.0996 17.1738 14.1504 14.8223 16.1694H20.7082C21.5309 14.6278 22.0006 12.8692 22.0006 11.0001ZM17.7456 2.32341C15.882 0.8725 13.5455 0 11.0006 0C4.92516 0 0 4.92516 0 11.0001C0 17.075 4.92516 22 11.0006 22C13.7826 22 16.3157 20.9591 18.2529 19.2557H10.2889L10.2646 16.917C15.0632 12.7454 18.0048 9.92425 18.0048 7.19928C18.0048 6.18655 17.6191 4.90857 15.8831 4.90857C14.5085 4.90857 13.1824 5.70483 13.4234 9.03204H10.6265C9.92711 5.17433 12.025 2.11169 16.0274 2.11169C16.6479 2.11169 17.2219 2.18577 17.7456 2.32341Z" fill="white"/>
<path d="M32.2032 7.60293H34.8051C34.8941 5.62391 34.2272 2.48779 29.9352 2.48779C26.777 2.48779 24.4863 4.3785 24.4863 8.31461C24.4863 8.84838 24.5084 11.6059 24.5084 13.3183C24.5084 17.5886 27.4666 18.5224 29.9573 18.5224C31.4474 18.5224 33.6045 18.1886 34.6051 17.099V10.2938H29.7125V12.7624H31.8922V15.7648C30.2463 16.3206 27.2439 16.5432 27.2439 12.7624V8.31461C27.2439 5.66809 28.4673 4.75639 29.8236 4.75639C31.2248 4.75639 32.2032 5.46807 32.2032 7.60293ZM51.5573 14.2077C51.6684 8.11459 44.6857 10.138 44.7519 6.73559C44.774 5.53496 45.5526 4.75639 46.8205 4.75639C48.177 4.75639 48.9771 5.55702 48.9549 7.64771H51.5125C51.5794 5.75704 51.1346 2.53257 46.9095 2.53257C44.2851 2.53257 42.1281 3.82266 42.0833 6.69127C41.9723 12.5397 48.9998 10.6274 48.8887 14.1635C48.8439 15.6089 47.7985 16.2537 46.6201 16.2537C45.2415 16.2537 44.1294 15.4531 44.3519 13.0514H41.7716C41.4827 16.2317 42.884 18.5003 46.598 18.5003C49.7335 18.5003 51.5125 16.7652 51.5573 14.2077ZM39.8086 18.2996H37.1848V2.73259H39.8086V18.2996ZM39.8086 18.2996H37.1848V2.73259H39.8086V18.2996Z" fill="white"/>
</svg>
