<svg width="28" height="43" viewBox="0 0 28 43" fill="none" xmlns="http://www.w3.org/2000/svg">
<path d="M22.0077 0H5.99089C3.14922 0 0.824219 2.325 0.824219 5.16667V37.4583C0.824219 40.3 3.14922 42.625 5.99089 42.625H22.0077C24.8494 42.625 27.1744 40.3 27.1744 37.4583V5.16667C27.1744 2.325 24.8494 0 22.0077 0ZM13.9995 36.6833C12.9661 36.6833 11.9327 35.9083 11.9327 34.6166C11.9327 33.5833 12.7078 32.55 13.9995 32.55C14.0231 32.55 14.0467 32.5504 14.0703 32.5512C16.1878 32.6236 16.1183 36.6833 13.9995 36.6833ZM17.3576 9.55829H10.8993C9.86595 9.55829 8.8328 8.78332 8.8328 7.49165C8.8328 6.45832 9.60761 5.42502 10.8993 5.42502H17.3576C17.3978 5.42502 17.438 5.42619 17.4782 5.42852C19.5577 5.54929 19.4407 9.55829 17.3576 9.55829Z" fill="#EF3D23"/>
<path d="M22.0077 0H5.99089C3.14922 0 0.824219 2.325 0.824219 5.16667V37.4583C0.824219 40.3 3.14922 42.625 5.99089 42.625H22.0077C24.8494 42.625 27.1744 40.3 27.1744 37.4583V5.16667C27.1744 2.325 24.8494 0 22.0077 0ZM13.9995 36.6833C12.9661 36.6833 11.9327 35.9083 11.9327 34.6166C11.9327 33.5833 12.7078 32.55 13.9995 32.55C14.0231 32.55 14.0467 32.5504 14.0703 32.5512C16.1878 32.6236 16.1183 36.6833 13.9995 36.6833ZM17.3576 9.55829H10.8993C9.86595 9.55829 8.8328 8.78332 8.8328 7.49165C8.8328 6.45832 9.60761 5.42502 10.8993 5.42502H17.3576C17.3978 5.42502 17.438 5.42619 17.4782 5.42852C19.5577 5.54929 19.4407 9.55829 17.3576 9.55829Z" fill="url(#paint0_linear_83_328)" fill-opacity="0.2"/>
<defs>
<linearGradient id="paint0_linear_83_328" x1="13.9993" y1="0" x2="13.9993" y2="42.625" gradientUnits="userSpaceOnUse">
<stop stop-color="white"/>
<stop offset="1" stop-color="white" stop-opacity="0"/>
</linearGradient>
</defs>
</svg>
