<svg width="48" height="38" viewBox="0 0 48 38" fill="none" xmlns="http://www.w3.org/2000/svg">
<path fill-rule="evenodd" clip-rule="evenodd" d="M2.50736 2.67411C0.75 4.43147 0.75 7.25989 0.75 12.9167V25.0834C0.75 30.7403 0.75 33.5687 2.50736 35.3261C4.26472 37.0834 7.09315 37.0834 12.75 37.0834H35.25C40.9069 37.0834 43.7353 37.0834 45.4926 35.3261C47.25 33.5687 47.25 30.7403 47.25 25.0834V12.9167C47.25 7.25989 47.25 4.43147 45.4926 2.67411C43.7353 0.916748 40.9069 0.916748 35.25 0.916748H12.75C7.09315 0.916748 4.26472 0.916748 2.50736 2.67411ZM9.33205 10.002C8.64276 9.54248 7.71145 9.72874 7.25192 10.418C6.7924 11.1073 6.97866 12.0386 7.66795 12.4982L22.6132 22.4617C23.453 23.0215 24.547 23.0215 25.3867 22.4617L40.3321 12.4982C41.0213 12.0386 41.2076 11.1073 40.7481 10.418C40.2885 9.72874 39.3572 9.54248 38.6679 10.002L24 19.7806L9.33205 10.002Z" fill="#EF3D23"/>
<path fill-rule="evenodd" clip-rule="evenodd" d="M2.50736 2.67411C0.75 4.43147 0.75 7.25989 0.75 12.9167V25.0834C0.75 30.7403 0.75 33.5687 2.50736 35.3261C4.26472 37.0834 7.09315 37.0834 12.75 37.0834H35.25C40.9069 37.0834 43.7353 37.0834 45.4926 35.3261C47.25 33.5687 47.25 30.7403 47.25 25.0834V12.9167C47.25 7.25989 47.25 4.43147 45.4926 2.67411C43.7353 0.916748 40.9069 0.916748 35.25 0.916748H12.75C7.09315 0.916748 4.26472 0.916748 2.50736 2.67411ZM9.33205 10.002C8.64276 9.54248 7.71145 9.72874 7.25192 10.418C6.7924 11.1073 6.97866 12.0386 7.66795 12.4982L22.6132 22.4617C23.453 23.0215 24.547 23.0215 25.3867 22.4617L40.3321 12.4982C41.0213 12.0386 41.2076 11.1073 40.7481 10.418C40.2885 9.72874 39.3572 9.54248 38.6679 10.002L24 19.7806L9.33205 10.002Z" fill="url(#paint0_linear_172_120)" fill-opacity="0.2"/>
<defs>
<linearGradient id="paint0_linear_172_120" x1="24" y1="0.916748" x2="24" y2="37.0834" gradientUnits="userSpaceOnUse">
<stop stop-color="white"/>
<stop offset="1" stop-color="white" stop-opacity="0"/>
</linearGradient>
</defs>
</svg>
