<svg width="38" height="34" viewBox="0 0 38 34" fill="none" xmlns="http://www.w3.org/2000/svg">
<path d="M37.1116 11.4875C37.0248 11.4875 36.9512 11.4989 36.8851 11.5196C36.8209 11.5404 36.7661 11.5517 36.7246 11.5517C36.5735 11.5951 36.3469 11.6801 36.0467 11.8104C35.9599 11.8538 35.8522 11.9029 35.7239 11.9558C35.5955 12.0105 35.4444 12.0577 35.2726 12.1012C35.1215 12.1654 34.9705 12.1975 34.8213 12.1975C34.455 12.1975 34.0793 12.003 33.6922 11.6159C33.2617 11.1854 32.8312 10.9702 32.4007 10.9702C32.0571 10.9702 31.7021 11.1212 31.3358 11.4214C30.7769 11.9161 30.1311 12.5619 29.3985 13.3587L28.8491 13.9081L25.913 17.1992C25.4617 17.6297 25.052 17.8449 24.6857 17.8449C24.2344 17.8449 23.9002 17.5107 23.685 16.8442C23.5339 16.3061 23.4584 15.7359 23.4584 15.1335C23.4584 14.6162 23.5113 13.9818 23.6189 13.2303C23.7473 12.0464 24.0437 10.6548 24.5063 9.05181C24.9689 7.44876 25.2106 6.60476 25.2333 6.51791C25.254 6.43294 25.2654 6.32342 25.2654 6.19503C25.2654 5.87216 25.1143 5.62481 24.8141 5.45299C24.5989 5.34536 24.4044 5.29249 24.2326 5.29249C23.9965 5.29249 23.7813 5.38879 23.5868 5.58327L22.8448 6.35741L22.0064 7.22974C22.4143 7.40156 22.6201 7.67157 22.6201 8.03598C22.6201 8.2078 22.5766 8.46648 22.4917 8.81012C22.3727 9.39167 22.2689 9.96756 22.1801 10.5378C21.8195 10.653 21.2361 10.8286 20.426 11.0684L19.5537 11.327C19.295 11.3912 18.9722 11.446 18.5851 11.4875C18.6701 11.1873 18.7569 10.9173 18.8438 10.6813C18.9287 10.4453 18.9948 10.2621 19.0382 10.1318C19.4045 9.09901 19.6727 8.23801 19.8445 7.55072C20.2108 6.30265 20.4732 5.33592 20.6356 4.64675C20.7961 3.95757 20.9207 3.21553 21.0076 2.42061C21.0076 2.31299 21.0189 2.20537 21.0397 2.09774C21.0605 1.99012 21.0718 1.88249 21.0718 1.77486C21.0718 1.53884 20.9963 1.26884 20.8452 0.968623C20.6507 0.581552 20.4147 0.322874 20.1353 0.19448C19.8558 0.0660851 19.4687 0 18.9741 0C18.3491 0 17.7807 0.160493 17.2634 0.483367C16.1664 1.14988 15.0788 2.11851 14.0044 3.38735C13.3379 4.16149 12.4014 5.38879 11.1967 7.06547C10.1639 8.52879 9.15188 10.0129 8.16249 11.5196C8.01143 11.7349 7.86604 11.8803 7.72632 11.9558C7.5866 12.0313 7.36568 12.0691 7.06547 12.0691C6.37629 12.0256 5.26795 11.7689 3.74232 11.2949C3.24762 11.1665 2.7095 10.9777 2.12795 10.7304C1.5464 10.483 1.15933 10.3169 0.966735 10.23C0.794913 10.145 0.632532 10.1016 0.483367 10.1016C0.311545 10.1016 0.183151 10.1885 0.0962962 10.3603C0.032099 10.4471 0 10.5548 0 10.6832C0 10.8777 0.096296 11.0702 0.290776 11.2647C0.41917 11.3723 0.61365 11.5121 0.872327 11.6839L2.29222 12.4901C2.87377 12.813 3.58749 13.2869 4.43905 13.91C5.28872 14.535 5.71355 14.9221 5.71355 15.0712C5.77775 15.1789 5.78341 15.3035 5.73054 15.4432C5.67579 15.5829 5.56439 15.8152 5.39256 16.1362C5.11312 16.6743 4.8771 17.1576 4.68262 17.5881C4.48814 18.0394 4.33898 18.4586 4.23135 18.8475C4.12373 19.2346 4.06519 19.5575 4.05386 19.8162C4.04254 20.0748 4.03687 20.224 4.03687 20.2674C4.03687 20.9566 4.26345 21.5268 4.71472 21.9781C5.16599 22.4294 5.70411 22.6559 6.32909 22.6559C6.86721 22.6559 7.35624 22.5049 7.79807 22.2047C8.23801 21.9026 8.59865 21.5589 8.87998 21.1719C9.37468 20.4185 9.62203 19.5801 9.62203 18.655C9.62203 18.2471 9.60126 17.945 9.55783 17.7505C9.47098 17.2993 9.36335 16.9122 9.23496 16.5893C9.10656 16.2664 8.91208 15.9001 8.65341 15.4923C8.54578 15.3639 8.45893 15.2449 8.39473 15.1373C8.33053 15.0297 8.29843 14.9221 8.29843 14.8144C8.29843 14.7295 8.30976 14.654 8.33053 14.5879C8.39473 14.4802 8.48158 14.3254 8.58921 14.1196C8.69683 13.9157 8.81579 13.7646 8.94418 13.6683C9.07258 13.572 9.33125 13.5116 9.71832 13.4909H10.5567L13.7835 13.3946C13.978 13.3946 14.2782 13.3776 14.6879 13.3455C15.0958 13.3134 15.4829 13.2964 15.8492 13.2964C15.9776 13.3171 15.9341 13.5871 15.7208 14.1026C15.3337 15.1354 15.0316 15.9001 14.8163 16.3948L13.9119 18.7192C12.9225 21.2153 12.1899 23.0864 11.7179 24.3345L11.4592 25.0124C10.534 27.4009 9.93169 28.9813 9.65224 29.7573C9.50119 30.1878 9.3879 30.5522 9.31426 30.8543C9.23873 31.1545 9.20097 31.4774 9.20097 31.8229C9.20097 32.21 9.34636 32.5329 9.63713 32.7916C9.92791 33.0502 10.2772 33.1786 10.6869 33.1786C11.2251 33.1352 11.6933 32.9841 12.0917 32.7274C12.4901 32.4687 12.7903 32.1779 12.9962 31.8569C13.2001 31.534 13.302 31.2433 13.302 30.9846C12.7639 30.7486 12.4958 30.3275 12.4958 29.7252C12.4958 29.4457 12.5487 29.1115 12.6563 28.7245C12.8715 27.7993 13.0698 26.9987 13.2529 26.3209C13.4361 25.643 13.6986 24.7669 14.0441 23.6907C14.2593 22.9373 14.6351 21.8724 15.1732 20.4959L15.7227 18.9797C15.8945 18.5284 16.1097 17.9148 16.3684 17.1407C16.4534 16.9046 16.6157 16.4477 16.8518 15.7699C17.0878 15.092 17.3672 14.4085 17.6901 13.7212C17.7977 13.506 17.9167 13.3549 18.0451 13.2699C18.1735 13.185 18.3793 13.0868 18.6587 12.9792C20.1032 12.5751 21.2172 12.222 22.0083 11.9218C21.8743 13.1283 21.8101 14.3103 21.8214 15.4659C21.7572 16.6063 21.9611 17.5636 22.435 18.3377C22.909 19.1119 23.532 19.499 24.3062 19.499C24.9954 19.499 25.6827 19.1987 26.3718 18.5945C26.8231 18.1867 27.4047 17.5409 28.1146 16.6592C28.4375 16.1871 28.7811 15.7548 29.1474 15.3677L29.8895 14.5614C30.7505 13.657 31.3414 13.066 31.6643 12.7866C31.8361 12.6147 32.0023 12.475 32.1647 12.3674C32.3252 12.2598 32.4592 12.2069 32.5688 12.2069C32.6971 12.2069 32.8425 12.2617 33.0049 12.3674C33.1654 12.475 33.3429 12.6147 33.5374 12.7866C33.881 13.0887 34.2152 13.2378 34.5381 13.2378C34.6457 13.2378 34.7854 13.2171 34.9573 13.1736C35.4727 12.9792 35.9032 12.8017 36.2488 12.6412C36.5924 12.4807 37.0021 12.2692 37.4761 12.0124C37.4893 11.6593 37.3703 11.4875 37.1116 11.4875ZM5.29061 12.9074C5.50585 12.8866 5.86083 12.9565 6.35552 13.117C6.85022 13.2775 7.0768 13.4229 7.03337 13.5532C6.94651 13.6816 6.85022 13.7476 6.74259 13.7476L6.54811 13.7155C6.37629 13.6306 6.13272 13.4946 5.82118 13.3115C5.51152 13.1283 5.33403 12.9924 5.29061 12.9074ZM7.61492 19.9748C7.4431 20.3184 7.20519 20.5884 6.90498 20.781C6.73315 20.866 6.56133 20.9094 6.38951 20.9094C6.21769 20.9094 6.0723 20.8452 5.95335 20.7149C5.83439 20.5865 5.77586 20.4128 5.77586 20.1995C5.77586 19.769 5.91558 19.1345 6.19503 18.2962C6.5179 17.4786 6.87288 16.8442 7.25995 16.3929C7.49597 16.6082 7.65835 16.8404 7.74332 17.0859C7.82828 17.3332 7.89437 17.6184 7.9378 17.9412C8.00199 18.7588 7.89437 19.4366 7.61492 19.9748ZM17.1992 10.2281C16.9613 10.8531 16.7423 11.2553 16.5383 11.4384C16.3344 11.6216 15.9945 11.767 15.5225 11.8746C14.5747 11.9822 13.5966 12.0577 12.5864 12.1012C11.5744 12.1446 10.5642 12.1654 9.55217 12.1654C9.98267 11.4554 10.3811 10.8418 10.7455 10.3263L11.5196 9.22929C11.6707 9.01404 12.02 8.50802 12.5694 7.71311C13.1189 6.91819 13.6513 6.19692 14.1668 5.55117C14.8333 4.71283 15.4092 4.02365 15.8926 3.48553C16.3759 2.94741 16.9084 2.45271 17.49 2.00144C17.6184 1.89382 17.8336 1.7541 18.1357 1.58227C18.3075 1.49731 18.4907 1.45388 18.6852 1.45388C18.9212 1.45388 19.1043 1.53507 19.2346 1.69556C19.3649 1.85606 19.4385 2.07697 19.4612 2.35642C19.4404 2.70006 19.3649 3.22686 19.2346 3.93869C18.891 5.27361 18.5889 6.3272 18.3302 7.10135C18.0715 7.87171 17.6939 8.91586 17.1992 10.2281Z" fill="#171717"/>
</svg>
