<svg width="220" height="52" viewBox="0 0 220 52" fill="none" xmlns="http://www.w3.org/2000/svg">
<path d="M37.1116 21.509C37.0248 21.509 36.9512 21.5203 36.8851 21.5411C36.8209 21.5619 36.7661 21.5732 36.7246 21.5732C36.5735 21.6166 36.3469 21.7016 36.0467 21.8319C35.9599 21.8753 35.8522 21.9244 35.7239 21.9773C35.5955 22.032 35.4444 22.0792 35.2726 22.1227C35.1215 22.1869 34.9705 22.219 34.8213 22.219C34.455 22.219 34.0793 22.0245 33.6922 21.6374C33.2617 21.2069 32.8312 20.9917 32.4007 20.9917C32.0571 20.9917 31.7021 21.1427 31.3358 21.4429C30.7769 21.9376 30.1311 22.5834 29.3985 23.3802L28.8491 23.9296L25.913 27.2207C25.4617 27.6512 25.052 27.8664 24.6857 27.8664C24.2344 27.8664 23.9002 27.5322 23.685 26.8657C23.5339 26.3276 23.4584 25.7573 23.4584 25.155C23.4584 24.6377 23.5113 24.0033 23.6189 23.2518C23.7473 22.0679 24.0437 20.6763 24.5063 19.0733C24.9689 17.4702 25.2106 16.6262 25.2333 16.5394C25.254 16.4544 25.2654 16.3449 25.2654 16.2165C25.2654 15.8936 25.1143 15.6463 24.8141 15.4745C24.5989 15.3668 24.4044 15.314 24.2326 15.314C23.9965 15.314 23.7813 15.4103 23.5868 15.6048L22.8448 16.3789L22.0064 17.2512C22.4143 17.423 22.6201 17.693 22.6201 18.0575C22.6201 18.2293 22.5766 18.488 22.4917 18.8316C22.3727 19.4132 22.2689 19.989 22.1801 20.5593C21.8195 20.6744 21.2361 20.85 20.426 21.0898L19.5537 21.3485C19.295 21.4127 18.9722 21.4675 18.5851 21.509C18.6701 21.2088 18.7569 20.9388 18.8438 20.7028C18.9287 20.4667 18.9948 20.2836 19.0382 20.1533C19.4045 19.1205 19.6727 18.2595 19.8445 17.5722C20.2108 16.3241 20.4732 15.3574 20.6356 14.6682C20.7961 13.9791 20.9207 13.237 21.0076 12.4421C21.0076 12.3345 21.0189 12.2269 21.0397 12.1192C21.0605 12.0116 21.0718 11.904 21.0718 11.7963C21.0718 11.5603 20.9963 11.2903 20.8452 10.9901C20.6507 10.603 20.4147 10.3444 20.1353 10.216C19.8558 10.0876 19.4687 10.0215 18.9741 10.0215C18.3491 10.0215 17.7807 10.182 17.2634 10.5049C16.1664 11.1714 15.0788 12.14 14.0044 13.4088C13.3379 14.183 12.4014 15.4103 11.1967 17.087C10.1639 18.5503 9.15188 20.0344 8.16249 21.5411C8.01143 21.7564 7.86604 21.9017 7.72632 21.9773C7.5866 22.0528 7.36568 22.0906 7.06547 22.0906C6.37629 22.0471 5.26795 21.7903 3.74232 21.3164C3.24762 21.188 2.7095 20.9992 2.12795 20.7519C1.5464 20.5045 1.15933 20.3384 0.966735 20.2515C0.794913 20.1665 0.632532 20.1231 0.483367 20.1231C0.311545 20.1231 0.183151 20.21 0.0962962 20.3818C0.032099 20.4686 0 20.5763 0 20.7047C0 20.8991 0.096296 21.0917 0.290776 21.2862C0.41917 21.3938 0.61365 21.5336 0.872327 21.7054L2.29222 22.5116C2.87377 22.8345 3.58749 23.3084 4.43905 23.9315C5.28872 24.5565 5.71355 24.9436 5.71355 25.0927C5.77775 25.2003 5.78341 25.325 5.73054 25.4647C5.67579 25.6044 5.56439 25.8367 5.39256 26.1576C5.11312 26.6958 4.8771 27.1791 4.68262 27.6096C4.48814 28.0609 4.33898 28.4801 4.23135 28.869C4.12373 29.2561 4.06519 29.579 4.05386 29.8377C4.04254 30.0963 4.03687 30.2455 4.03687 30.2889C4.03687 30.9781 4.26345 31.5483 4.71472 31.9996C5.16599 32.4509 5.70411 32.6774 6.32909 32.6774C6.86721 32.6774 7.35624 32.5264 7.79807 32.2262C8.23801 31.9241 8.59865 31.5804 8.87998 31.1933C9.37468 30.44 9.62203 29.6016 9.62203 28.6764C9.62203 28.2686 9.60126 27.9665 9.55783 27.772C9.47098 27.3207 9.36335 26.9337 9.23496 26.6108C9.10656 26.2879 8.91208 25.9216 8.65341 25.5138C8.54578 25.3854 8.45893 25.2664 8.39473 25.1588C8.33053 25.0512 8.29843 24.9436 8.29843 24.8359C8.29843 24.751 8.30976 24.6754 8.33053 24.6094C8.39473 24.5017 8.48158 24.3469 8.58921 24.1411C8.69683 23.9372 8.81579 23.7861 8.94418 23.6898C9.07258 23.5935 9.33125 23.5331 9.71832 23.5123H10.5567L13.7835 23.416C13.978 23.416 14.2782 23.399 14.6879 23.3669C15.0958 23.3348 15.4829 23.3179 15.8492 23.3179C15.9776 23.3386 15.9341 23.6086 15.7208 24.1241C15.3337 25.1569 15.0316 25.9216 14.8163 26.4163L13.9119 28.7406C12.9225 31.2368 12.1899 33.1079 11.7179 34.356L11.4592 35.0338C10.534 37.4224 9.93169 39.0027 9.65224 39.7788C9.50119 40.2093 9.3879 40.5737 9.31426 40.8758C9.23873 41.176 9.20097 41.4989 9.20097 41.8444C9.20097 42.2315 9.34636 42.5544 9.63713 42.813C9.92791 43.0717 10.2772 43.2001 10.6869 43.2001C11.2251 43.1567 11.6933 43.0056 12.0917 42.7488C12.4901 42.4902 12.7903 42.1994 12.9962 41.8784C13.2001 41.5555 13.302 41.2648 13.302 41.0061C12.7639 40.7701 12.4958 40.349 12.4958 39.7467C12.4958 39.4672 12.5487 39.133 12.6563 38.746C12.8715 37.8208 13.0698 37.0202 13.2529 36.3423C13.4361 35.6645 13.6986 34.7884 14.0441 33.7121C14.2593 32.9588 14.6351 31.8939 15.1732 30.5174L15.7227 29.0012C15.8945 28.5499 16.1097 27.9363 16.3684 27.1621C16.4534 26.9261 16.6157 26.4692 16.8518 25.7913C17.0878 25.1135 17.3672 24.43 17.6901 23.7427C17.7977 23.5274 17.9167 23.3764 18.0451 23.2914C18.1735 23.2065 18.3793 23.1083 18.6587 23.0006C20.1032 22.5966 21.2172 22.2435 22.0083 21.9433C21.8743 23.1498 21.8101 24.3318 21.8214 25.4873C21.7572 26.6278 21.9611 27.5851 22.435 28.3592C22.909 29.1334 23.532 29.5204 24.3062 29.5204C24.9954 29.5204 25.6827 29.2202 26.3718 28.616C26.8231 28.2082 27.4047 27.5624 28.1146 26.6807C28.4375 26.2086 28.7811 25.7762 29.1474 25.3892L29.8895 24.5829C30.7505 23.6785 31.3414 23.0875 31.6643 22.8081C31.8361 22.6362 32.0023 22.4965 32.1647 22.3889C32.3252 22.2813 32.4592 22.2284 32.5688 22.2284C32.6971 22.2284 32.8425 22.2831 33.0049 22.3889C33.1654 22.4965 33.3429 22.6362 33.5374 22.8081C33.881 23.1102 34.2152 23.2593 34.5381 23.2593C34.6457 23.2593 34.7854 23.2386 34.9573 23.1951C35.4727 23.0007 35.9032 22.8232 36.2488 22.6627C36.5924 22.5022 37.0021 22.2907 37.4761 22.0339C37.4893 21.6808 37.3703 21.509 37.1116 21.509ZM5.29061 22.9289C5.50585 22.9081 5.86083 22.978 6.35552 23.1385C6.85022 23.299 7.0768 23.4444 7.03337 23.5746C6.94651 23.703 6.85022 23.7691 6.74259 23.7691L6.54811 23.737C6.37629 23.6521 6.13272 23.5161 5.82118 23.333C5.51152 23.1498 5.33403 23.0139 5.29061 22.9289ZM7.61492 29.9963C7.4431 30.3399 7.20519 30.6099 6.90498 30.8025C6.73315 30.8875 6.56133 30.9309 6.38951 30.9309C6.21769 30.9309 6.0723 30.8667 5.95335 30.7364C5.83439 30.608 5.77586 30.4343 5.77586 30.2209C5.77586 29.7904 5.91558 29.156 6.19503 28.3177C6.5179 27.5001 6.87288 26.8657 7.25995 26.4144C7.49597 26.6297 7.65835 26.8619 7.74332 27.1074C7.82828 27.3547 7.89437 27.6398 7.9378 27.9627C8.00199 28.7803 7.89437 29.4581 7.61492 29.9963ZM17.1992 20.2496C16.9613 20.8746 16.7423 21.2768 16.5383 21.4599C16.3344 21.6431 15.9945 21.7885 15.5225 21.8961C14.5747 22.0037 13.5966 22.0792 12.5864 22.1227C11.5744 22.1661 10.5642 22.1869 9.55217 22.1869C9.98267 21.4769 10.3811 20.8633 10.7455 20.3478L11.5196 19.2508C11.6707 19.0355 12.02 18.5295 12.5694 17.7346C13.1189 16.9397 13.6513 16.2184 14.1668 15.5727C14.8333 14.7343 15.4092 14.0451 15.8926 13.507C16.3759 12.9689 16.9084 12.4742 17.49 12.0229C17.6184 11.9153 17.8336 11.7756 18.1357 11.6038C18.3075 11.5188 18.4907 11.4754 18.6852 11.4754C18.9212 11.4754 19.1043 11.5566 19.2346 11.717C19.3649 11.8775 19.4385 12.0985 19.4612 12.3779C19.4404 12.7215 19.3649 13.2483 19.2346 13.9602C18.891 15.2951 18.5889 16.3487 18.3302 17.1228C18.0715 17.8932 17.6939 18.9373 17.1992 20.2496Z" fill="#EF4229"/>
<path d="M82.4389 24.736C82.6863 24.0468 82.9922 23.4879 83.3585 23.0574C83.7248 22.6269 84.2402 22.1209 84.9068 21.5413L85.5204 20.9597L87.1669 19.4756C88.3715 18.422 89.1041 17.7649 89.3609 17.5063L91.2 15.6351C91.587 15.2046 92.1894 14.5815 93.0069 13.764C93.2222 13.5487 93.4903 13.4203 93.8132 13.3769C94.5873 13.2693 95.673 13.1503 97.0721 13.0219C98.4712 12.9143 100.429 12.7746 102.946 12.6027C103.333 12.582 103.645 12.5442 103.883 12.4894C104.119 12.4366 104.313 12.312 104.464 12.1175C104.528 11.9891 104.561 11.8701 104.561 11.7625C104.561 11.5265 104.325 11.4075 103.851 11.4075H103.496C102.119 11.451 101.075 11.4944 100.365 11.5359C99.6759 11.5794 99.1604 11.6228 98.8168 11.6643L97.7198 11.7606L94.9442 12.0193C94.8573 12.042 94.7931 12.0363 94.7497 12.0023C94.7063 11.9702 94.7176 11.9211 94.7818 11.8569L95.588 10.6296C95.673 10.5012 95.8297 10.269 96.0563 9.93667C96.2829 9.60247 96.4604 9.27581 96.5888 8.95294C96.6737 8.78112 96.7172 8.5772 96.7172 8.33929C96.7172 7.93145 96.5661 7.60857 96.2659 7.37067C96.0714 7.15542 95.8184 6.99493 95.5068 6.8873C95.1953 6.77968 94.8668 6.72681 94.5231 6.72681C94.1568 6.72681 93.8566 6.78156 93.6187 6.8873C92.9522 7.16675 92.382 7.52738 91.908 7.96921C91.4341 8.41104 90.8639 9.00769 90.1974 9.76107C89.8103 10.1916 89.3043 10.8052 88.6812 11.6001L88.2299 12.1817C87.8428 12.6764 87.3481 12.9672 86.7458 13.0521C84.8312 13.375 83.3358 13.6544 82.2596 13.8905C81.7441 14.0189 81.2154 14.2454 80.6773 14.5683C80.5262 14.6552 80.4035 14.7892 80.3053 14.9724C80.209 15.1555 80.1599 15.3443 80.1599 15.5369C80.1599 15.7087 80.2241 15.8806 80.3544 16.0524C80.5697 16.3318 80.8284 16.4716 81.1286 16.4716C81.323 16.4716 81.5383 16.3866 81.7743 16.2129C81.8593 16.1487 81.9896 16.0411 82.1614 15.89C82.3332 15.739 82.4956 15.6313 82.6448 15.5671C83.0318 15.3519 83.3868 15.1857 83.7097 15.0668C84.0325 14.9478 84.3875 14.8459 84.7746 14.7609C85.1617 14.6759 85.4638 14.6004 85.679 14.5343C85.764 14.5135 85.8773 14.4966 86.017 14.4852C86.1567 14.4739 86.2794 14.4682 86.389 14.4682C86.3248 14.5966 86.2643 14.7212 86.2115 14.8402C86.1567 14.9592 86.0982 15.0724 86.034 15.1782L84.4857 17.6951L84.0023 18.4692C83.5718 19.2018 83.1961 19.7985 82.8732 20.2611C82.5503 20.7237 82.184 21.1485 81.7762 21.5356C81.7196 21.5828 81.6742 21.6375 81.6346 21.6923L80.8397 22.2134C80.3884 22.5363 79.9466 22.8158 79.5161 23.0518C78.6777 23.5899 78.0584 23.9713 77.66 24.1979C77.2616 24.4245 76.7839 24.634 76.2231 24.8266C75.9003 24.955 75.6095 25.0211 75.3527 25.0211C74.9864 25.0211 74.707 24.8984 74.5144 24.6492C74.3199 24.4018 74.2236 24.0733 74.2236 23.6654L74.2557 23.2784C74.3633 22.5684 74.6107 21.5469 74.9977 20.212C75.1261 19.74 75.1922 19.4907 75.1922 19.47C75.2356 19.0829 75.1544 18.7657 74.9505 18.5183C74.7466 18.271 74.4502 18.1369 74.0631 18.1143C73.9762 18.0935 73.8365 18.0822 73.6439 18.0822C72.4827 18.0822 71.0081 18.9753 69.2219 20.7614L68.7385 21.2127C68.0059 21.9019 67.4791 22.4174 67.1562 22.761L64.7035 25.2137C64.6167 25.3006 64.4939 25.3855 64.3316 25.4724C64.1711 25.5592 64.0257 25.6008 63.8954 25.6008C63.7236 25.6008 63.6367 25.4932 63.6367 25.2779C63.6367 25.2137 63.6575 25.074 63.7009 24.8587C63.8293 24.4717 63.9917 24.0846 64.1843 23.6975L64.4751 23.0518C65.0774 21.8471 65.6627 20.7973 66.2329 19.9042C66.8031 19.0111 67.464 18.2106 68.2174 17.5006C68.3892 17.3288 68.561 17.0701 68.7328 16.7265C68.797 16.5981 68.8291 16.4678 68.8291 16.3394C68.8291 16.1676 68.7536 16.0222 68.6026 15.9032C68.4515 15.7843 68.2363 15.7257 67.9568 15.7257C67.2903 15.7257 66.6445 15.9089 66.0196 16.2752C65.7609 16.4697 65.6325 16.6944 65.6325 16.953V17.0493C65.6759 17.3514 65.6212 17.6422 65.472 17.9217C65.236 18.4164 64.9773 18.9016 64.6979 19.3737L64.1824 20.3423L63.7632 21.1485C63.6934 21.2845 63.6254 21.4185 63.5612 21.5488C63.4913 21.5601 63.4215 21.5752 63.3441 21.5998C62.9136 21.8377 62.096 22.2776 60.8913 22.9234C59.6867 23.5691 58.7728 24.0317 58.1479 24.3112C57.2227 24.7624 56.3994 25.1231 55.6782 25.3931C54.9569 25.6631 54.1336 25.8727 53.2084 26.0218C52.2191 26.086 51.5148 25.9255 51.0937 25.5385C50.6745 25.1514 50.465 24.6661 50.465 24.0865C50.465 23.9581 50.4857 23.7636 50.5292 23.5049C50.5726 23.1613 50.7066 22.7686 50.9332 22.3267C51.1598 21.8868 51.3902 21.5035 51.6281 21.1806C51.7357 21.0522 51.8697 20.8955 52.0321 20.7124C52.1926 20.5292 52.338 20.3083 52.4683 20.0515C52.5325 19.9231 52.5646 19.7834 52.5646 19.6323C52.5646 19.3963 52.4777 19.1055 52.3059 18.7619C52.0907 18.3956 51.7565 18.2124 51.3052 18.2124C51.0465 18.2124 50.7671 18.2729 50.4668 18.3899C50.1647 18.5089 49.9174 18.6637 49.7248 18.8582L48.6278 19.9552C47.1645 21.3978 45.9051 22.559 44.8515 23.4407C43.7979 24.3225 42.8066 24.8927 41.8814 25.1514C41.6869 25.2156 41.483 25.2477 41.2678 25.2477C40.8373 25.2477 40.471 25.1136 40.1708 24.8436C39.8686 24.5755 39.7195 24.1941 39.7195 23.6975C39.7195 23.3312 39.8158 22.9121 40.0103 22.4381C40.5918 21.0617 41.7417 19.6739 43.4637 18.2747C43.83 17.9745 44.2322 17.7215 44.674 17.5157C45.1139 17.3118 45.518 17.2098 45.8843 17.2098C46.2072 17.2098 46.4545 17.291 46.6263 17.4515C46.7982 17.612 46.885 17.8235 46.885 18.0803C46.885 18.2955 46.9606 18.4673 47.1116 18.5957C47.2627 18.7241 47.4458 18.7902 47.6611 18.7902C47.8121 18.7902 47.9953 18.7373 48.2105 18.6297C48.641 18.4145 48.8563 18.0387 48.8563 17.5006C48.8563 17.3496 48.8449 17.2533 48.8242 17.2098C48.76 16.7793 48.5069 16.4357 48.0651 16.177C47.6233 15.9183 47.0908 15.7899 46.4677 15.7899C45.973 15.7899 45.4935 15.8447 45.0309 15.9504C44.5683 16.0581 44.0471 16.2733 43.4656 16.5962C41.9588 17.5856 40.8297 18.5655 40.0763 19.5323C39.5175 20.2856 39.0926 20.9314 38.8018 21.4695C38.5111 22.0076 38.3015 22.6213 38.1731 23.3086C38.1297 23.6107 38.1089 23.8354 38.1089 23.9864C38.1089 24.7832 38.3562 25.4384 38.8509 25.9558C39.3456 26.4731 40.0235 26.7299 40.8845 26.7299C41.3565 26.7299 41.8531 26.6544 42.3686 26.5033C43.1861 26.2446 44.0943 25.7027 45.0951 24.8738C46.0958 24.0468 47.1871 23.0499 48.371 21.8887L49.6946 20.6614C49.9098 20.4461 50.0817 20.3385 50.2101 20.3385C50.295 20.3385 50.3385 20.3933 50.3385 20.499C50.3385 20.6066 50.2743 20.7898 50.144 21.0484L49.5624 22.1776C49.3037 22.8441 49.1754 23.4804 49.1754 24.0808C49.1754 24.3829 49.1961 24.5963 49.2395 24.7266C49.3679 25.5007 49.7512 26.0766 50.3857 26.4523C51.0201 26.83 51.7357 27.0169 52.5325 27.0169C52.8119 27.0169 53.1669 26.9735 53.5974 26.8885C54.9304 26.6525 56.3673 26.1729 57.9062 25.4516C59.445 24.7303 60.9763 23.9505 62.5057 23.1122C62.6549 23.0235 62.7927 22.9423 62.9192 22.8667C62.7738 23.1821 62.6454 23.4672 62.5378 23.724C62.2584 24.3905 62.0979 25.091 62.0544 25.8217C62.0337 26.339 62.1621 26.7148 62.4415 26.9508C62.721 27.1868 63.0759 27.3058 63.5064 27.3058C64.088 27.3058 64.6941 27.032 65.3304 26.4825C65.9648 25.9331 66.7446 25.1325 67.6698 24.0789C68.7668 22.9177 69.2842 22.3683 69.2181 22.4325L69.8317 21.8509C70.4133 21.292 70.908 20.8351 71.3158 20.4801C71.7237 20.1251 72.1221 19.84 72.5091 19.6248C72.7244 19.5172 72.9396 19.4643 73.1549 19.4643C73.4985 19.4643 73.6704 19.6361 73.6704 19.9797C73.6704 20.1308 73.6156 20.3347 73.5099 20.5934C73.4664 20.7218 73.3588 21.1259 73.187 21.8037C73.0152 22.4816 72.9283 23.0253 72.9283 23.4332C72.8641 24.2073 73.0359 24.8644 73.4438 25.4025C73.8516 25.9406 74.4332 26.2088 75.1866 26.2088C75.8531 26.2088 76.5857 25.9935 77.3806 25.563C78.1755 25.1325 79.1762 24.5189 80.3827 23.724C80.6301 23.571 80.9397 23.3614 81.3079 23.1009C81.2079 23.3935 81.0549 23.8297 80.851 24.4188C80.496 25.4403 80.3185 26.5977 80.3185 27.8873C80.3185 28.8994 80.5017 29.8132 80.868 30.6308C81.1267 31.1029 81.493 31.4578 81.965 31.6957C82.4389 31.9318 82.9657 32.0507 83.5473 32.0507C84.4291 32.0507 85.2901 31.8034 86.1284 31.3087C86.8818 30.8989 87.7428 30.2551 88.7095 29.3714C89.6781 28.4897 90.3012 27.8666 90.5807 27.5003C90.7959 27.2208 90.9035 27.0169 90.9035 26.8866C90.9035 26.6921 90.7638 26.5958 90.4844 26.5958C90.4202 26.6393 89.9689 27.0698 89.1287 27.8873C88.2903 28.7049 87.4293 29.3714 86.5476 29.8888C86.3323 30.0606 85.983 30.2324 85.4996 30.4061C85.0163 30.578 84.548 30.6648 84.0949 30.6648C83.4491 30.6648 82.928 30.4666 82.5296 30.0682C82.1312 29.6698 81.9329 28.9976 81.9329 28.0516C81.9329 27.7514 81.9442 27.5248 81.965 27.3738C82.0368 26.3069 82.1916 25.4252 82.4389 24.736ZM91.0716 10.826C92.1252 9.57792 92.905 8.783 93.411 8.43747C93.917 8.09383 94.3419 7.92201 94.6855 7.92201C94.9215 7.92201 95.1047 7.97677 95.2349 8.0825C95.3633 8.19013 95.4294 8.35251 95.4294 8.56587C95.4294 8.63007 95.4087 8.74902 95.3652 8.92084C95.2576 9.15686 94.9933 9.59302 94.5741 10.2274C94.1549 10.8619 93.8811 11.2433 93.7509 11.3736C93.5356 11.6115 93.2562 11.804 92.9125 11.9551C92.5689 12.1062 91.9987 12.2345 91.2019 12.3422C91.0508 12.3629 90.8356 12.3913 90.5561 12.4234C90.2767 12.4555 89.9972 12.4725 89.7178 12.4725L91.0716 10.826ZM88.1355 14.5702C88.2205 14.3549 88.4697 14.1831 88.8775 14.0547C89.2854 13.9263 89.765 13.8282 90.3144 13.764C90.8639 13.6998 91.2226 13.6563 91.3963 13.6356C90.9016 14.2605 89.8745 15.3255 88.3149 16.8303C86.7553 18.3371 85.6299 19.3038 84.9426 19.7343L88.1355 14.5702Z" fill="#EF4229"/>
<path d="M97.7515 16.9907C97.6231 16.9473 97.5249 16.9265 97.4607 16.9265C97.1378 16.9265 96.8471 17.0983 96.5884 17.442C96.4373 17.6365 96.3618 17.8291 96.3618 18.0235C96.3618 18.1746 96.4052 18.303 96.4902 18.4106C96.5336 18.4975 96.6092 18.5673 96.7168 18.6202C96.8244 18.6749 96.932 18.7014 97.0397 18.7014C97.4475 18.7448 97.7874 18.6844 98.0555 18.5239C98.3236 18.3634 98.5332 18.067 98.6842 17.6365C98.6842 17.4212 98.5974 17.2758 98.4256 17.2003C98.2575 17.1248 98.0309 17.0549 97.7515 16.9907Z" fill="#EF4229"/>
<path d="M104.562 21.6374C104.368 21.6374 104.219 21.6808 104.111 21.7658C103.873 21.9376 103.518 22.217 103.046 22.6041C101.152 24.0882 99.5227 25.2721 98.1576 26.1538C96.7906 27.0356 95.5916 27.4774 94.5588 27.4774C94.0433 27.4774 93.6713 27.3321 93.4448 27.0413C93.2182 26.7505 93.1068 26.4012 93.1068 25.9915C93.1068 25.6686 93.1596 25.3457 93.2673 25.0228C93.4391 24.5489 93.66 24.1354 93.9281 23.7804C94.1962 23.4255 94.5569 23.0762 95.01 22.7306C95.3329 22.4946 95.6652 22.2038 96.0108 21.8602C96.1391 21.6884 96.2052 21.4618 96.2052 21.1823C96.2052 20.816 96.1089 20.5366 95.9145 20.344C95.6992 20.1495 95.4311 20.0532 95.1082 20.0532C94.7853 20.0532 94.5153 20.1608 94.302 20.3761L93.6562 20.8916C93.2899 21.171 93.0426 21.3655 92.9142 21.4731C92.9991 21.711 92.7745 22.3983 92.2363 23.5388C92.0645 23.8824 91.9361 24.1845 91.8493 24.4432C91.7209 24.8944 91.6548 25.3476 91.6548 25.7989C91.6548 26.6599 91.8965 27.3811 92.3817 27.9608C92.8651 28.5424 93.5694 28.8331 94.4965 28.8331C95.6142 28.8331 96.8566 28.4253 98.2237 27.6058C99.5888 26.7883 101.122 25.6799 102.823 24.2808C104.2 23.2046 104.889 22.421 104.889 21.9244C104.885 21.7337 104.777 21.6374 104.562 21.6374Z" fill="#EF4229"/>
<path d="M147.582 19.7492C147.71 19.5887 147.754 19.3773 147.71 19.1205C147.623 18.8618 147.355 18.6579 146.904 18.5068C146.453 18.3558 146.043 18.2708 145.677 18.2482C145.203 18.2274 144.697 18.2916 144.161 18.4426C143.622 18.5937 142.977 18.926 142.225 19.4433C141.731 19.8097 141.262 20.2496 140.82 20.7669C140.379 21.2824 139.878 21.9282 139.319 22.7042C138.932 23.2423 138.54 23.7748 138.141 24.3016C137.743 24.8284 137.437 25.2211 137.222 25.4798C136.942 25.6743 136.716 25.7706 136.544 25.7706C136.349 25.7706 136.253 25.6629 136.253 25.4477C136.253 25.3627 136.264 25.2872 136.285 25.2211C136.306 25.1569 136.329 25.1021 136.349 25.0606L137.222 23.2215C137.952 21.3938 138.868 19.8436 139.965 18.5748C139.986 18.554 140.073 18.4464 140.224 18.2519C140.375 18.0574 140.45 17.8535 140.45 17.6383C140.45 17.4438 140.364 17.2946 140.192 17.187C139.718 16.9076 139.31 16.7678 138.964 16.7678C138.642 16.7678 138.362 16.8868 138.126 17.1228C138.083 17.1662 138.018 17.2248 137.932 17.3003C137.845 17.3758 137.781 17.4457 137.737 17.5099C137.694 17.5741 137.635 17.6496 137.56 17.7365C137.484 17.8233 137.446 17.897 137.446 17.963C137.446 18.0291 137.458 18.0707 137.478 18.0914C137.563 18.1991 137.607 18.3388 137.607 18.5106C137.607 18.6824 137.569 18.8712 137.493 19.0752C137.418 19.2791 137.369 19.4131 137.348 19.4792C137.106 20.023 136.906 20.4743 136.744 20.8387C136.619 20.8462 136.423 20.867 136.155 20.8991C135.488 20.9425 134.703 21.1257 133.798 21.4486C132.809 21.8149 131.669 22.2869 130.377 22.8685C130.141 22.9761 129.603 23.2348 128.763 23.6426C128.03 24.0089 127.59 24.2242 127.439 24.2884C127.224 24.396 127.073 24.4488 126.988 24.4488C126.901 24.4488 126.805 24.3846 126.697 24.2544C126.589 24.126 126.525 24.0391 126.503 23.9957C125.878 23.1347 124.975 22.6306 123.791 22.4795C123.727 22.4587 123.448 22.4266 122.953 22.3832C122.889 22.3832 122.851 22.3568 122.84 22.302C122.828 22.2491 122.857 22.168 122.921 22.0603C123.825 20.8991 124.847 19.4358 125.987 17.6704C126.61 16.7244 127.116 15.8634 127.503 15.0893C127.89 14.3151 128.213 13.4749 128.472 12.5724C128.536 12.3571 128.623 11.9493 128.731 11.3451C128.774 10.8296 128.617 10.3613 128.262 9.94028C127.907 9.52111 127.45 9.31152 126.892 9.31152C126.654 9.31152 126.397 9.36628 126.117 9.47202C125.451 9.73069 124.858 10.1064 124.343 10.6011C123.525 11.3545 122.809 12.0701 122.196 12.748C121.582 13.4258 121.017 14.1527 120.502 14.9269C119.728 16.0881 118.672 17.9291 117.339 20.446C116.888 21.307 116.091 22.9194 114.951 25.2872L114.273 26.7392L113.499 28.4177C113.176 29.1711 112.972 29.6337 112.885 29.8055C112.67 30.1926 112.498 30.3871 112.368 30.3871H112.304C112.196 30.3437 112.143 30.2474 112.143 30.0963C112.143 29.9018 112.239 29.4827 112.434 28.8369L114.113 24.0278C114.22 23.7049 114.5 22.9421 114.951 21.7356L116.08 18.5729C116.165 18.3577 116.252 18.0574 116.339 17.6685C116.488 17.002 116.144 16.6678 115.306 16.6678C114.788 16.6885 114.332 16.8283 113.935 17.0869C113.537 17.3456 113.231 17.9479 113.015 18.8939C113.488 18.8089 113.725 19.0128 113.725 19.5075C113.725 19.6586 113.71 19.8304 113.676 20.023C113.642 20.2156 113.616 20.3572 113.595 20.4422C113.595 20.5932 113.574 20.7594 113.531 20.9425C113.488 21.1257 113.444 21.2805 113.403 21.4108C113.208 22.1434 112.897 23.197 112.466 24.5735C112.207 25.3476 112.024 25.9292 111.917 26.3162C111.55 27.4359 111.12 28.801 110.625 30.4154C110.325 31.4048 110.174 32.211 110.174 32.836C110.174 33.0947 110.206 33.3194 110.27 33.5139C110.378 33.7725 110.523 33.9859 110.706 34.1596C110.889 34.3314 111.088 34.4183 111.303 34.4183C111.539 34.4183 111.775 34.3314 112.013 34.1596C112.228 34.0312 112.379 33.8896 112.464 33.7404C112.808 33.3968 113.27 32.6434 113.852 31.4822L114.175 30.8686C114.475 30.2662 114.734 29.6753 114.949 29.0937C115.272 28.3403 115.476 27.8777 115.563 27.7059C116.939 24.7793 117.995 22.5852 118.725 21.1219C120.145 18.2614 121.769 15.7766 123.599 13.6675C124.373 12.7423 125.103 12.0324 125.793 11.5377C126.051 11.3432 126.255 11.2469 126.406 11.2469C126.578 11.2469 126.706 11.3111 126.793 11.4414C126.878 11.549 126.922 11.7435 126.922 12.0229C126.922 12.41 126.803 12.916 126.567 13.5391C126.265 14.3774 125.942 15.11 125.598 15.7331C125.254 16.3581 124.65 17.3683 123.791 18.7674C123.276 19.5208 122.785 20.1873 122.322 20.7688C121.86 21.3504 121.272 22.0282 120.562 22.8024C120.391 22.9742 120.175 23.2329 119.917 23.5765C119.83 23.6841 119.788 23.8144 119.788 23.9636C119.788 24.1354 119.841 24.2978 119.949 24.447C120.034 24.5753 120.153 24.6414 120.304 24.6414C120.455 24.6414 120.595 24.6093 120.723 24.5451C120.808 24.5017 121.008 24.4167 121.32 24.2865C121.631 24.1581 121.928 24.0712 122.207 24.0278C122.507 23.9636 122.789 23.9315 123.045 23.9315C123.712 23.9315 124.282 24.126 124.756 24.513C125.035 24.7075 125.175 24.9322 125.175 25.1909C125.175 25.4269 125.035 25.6535 124.756 25.8687C124.605 25.9764 124.433 26.1066 124.241 26.2558C124.046 26.4069 123.821 26.5787 123.563 26.7713C122.207 27.6965 121.201 28.4177 120.545 28.9332C119.888 29.4487 119.109 30.202 118.206 31.1914C117.862 31.5351 117.513 31.9543 117.158 32.4508C116.803 32.9455 116.529 33.4081 116.335 33.8386C116.14 34.2691 115.997 34.6298 115.899 34.9205C115.801 35.2113 115.753 35.5059 115.753 35.808C115.753 36.7332 116.097 37.4431 116.786 37.9378C117.258 38.3891 117.936 38.6157 118.82 38.6157C119.314 38.6157 119.734 38.5609 120.079 38.4552C121.758 37.9812 123.21 36.9163 124.437 35.2604C126.438 32.5283 127.396 29.6885 127.309 26.7411C127.286 26.1822 127.545 25.763 128.083 25.4817C128.729 25.1814 129.201 24.9435 129.503 24.7717L131.117 24.0297C132.709 23.299 133.861 22.8024 134.571 22.5456C135.162 22.3285 135.711 22.1453 136.225 21.9942L135.603 23.3839C135.152 24.5886 134.926 25.4175 134.926 25.8687C134.926 26.0198 134.937 26.1161 134.958 26.1595C135.13 26.8487 135.539 27.1923 136.185 27.1923C136.464 27.1923 136.755 27.1225 137.057 26.9827C137.358 26.843 137.616 26.6655 137.831 26.4503C138.304 25.9556 138.917 25.2343 139.671 24.2884C140.122 23.7068 140.601 23.1215 141.107 22.5286C141.613 21.9376 142.102 21.4372 142.576 21.0275C143.415 20.2968 144.448 19.9305 145.675 19.9305C146.041 19.9305 146.347 19.9475 146.594 19.9796C146.842 20.0117 146.987 20.0287 147.031 20.0287C147.268 20.0022 147.452 19.9116 147.582 19.7492ZM125.764 28.7708C125.183 31.9335 123.731 34.3862 121.406 36.129C120.997 36.4292 120.583 36.6614 120.164 36.8219C119.745 36.9824 119.277 37.0749 118.759 37.0957C118.285 37.0957 117.925 36.9446 117.677 36.6444C117.43 36.3423 117.328 35.9458 117.371 35.4511C117.479 34.9564 117.657 34.4825 117.904 34.0312C118.151 33.58 118.48 33.0947 118.888 32.5792C120.221 31.0951 121.608 29.7829 123.051 28.6424L124.73 27.383C124.794 27.3396 124.913 27.2603 125.085 27.1414C125.256 27.0224 125.396 26.9639 125.504 26.9639C125.611 26.9639 125.676 27.0073 125.698 27.0923C125.783 27.2641 125.827 27.5756 125.827 28.0288C125.83 28.2648 125.808 28.5122 125.764 28.7708Z" fill="#EF4229"/>
<path d="M216.815 14.2491C215.752 14.3567 214.694 14.5153 213.641 14.6852C211.532 15.027 209.432 15.4159 207.327 15.7747C203.12 16.5016 198.892 17.1172 194.638 17.4703C191.022 17.7743 187.376 17.9329 183.774 17.5779C185.018 16.3298 186.261 15.0817 187.507 13.8356C187.979 13.3635 188.396 12.8764 188.521 12.1948C188.757 10.907 187.718 9.8931 186.438 10.1688C185.873 10.2915 185.396 10.5615 185.014 11.0033C182.798 13.5637 181.142 15.4764 179.822 16.9982C178.419 16.7358 177.024 16.4242 175.632 16.0957L172.52 15.3404C172.211 15.2649 171.905 15.178 171.603 15.0799C172.141 13.9413 172.57 12.7518 172.887 11.5358C173.159 10.4784 173.349 9.3984 173.438 8.30705C173.525 7.2157 173.514 6.10924 173.347 5.01223C173.177 3.92087 172.855 2.8163 172.207 1.85335C171.882 1.37564 171.469 0.941369 170.966 0.620383C170.466 0.297509 169.888 0.099254 169.307 0.0312805C168.723 -0.0385812 168.144 0.0142859 167.59 0.133239C167.315 0.191772 167.032 0.274851 166.763 0.384364C166.493 0.491989 166.235 0.627935 165.993 0.790316C165.504 1.10941 165.092 1.53614 164.766 2.01006C164.443 2.48777 164.209 3.01456 164.048 3.55646C163.731 4.64404 163.708 5.7807 163.859 6.87206C164.016 7.96719 164.362 9.02644 164.851 10.0102C165.344 10.992 165.982 11.9002 166.743 12.6913C167.504 13.4806 168.385 14.1547 169.345 14.6796C169.705 14.8778 170.079 15.0572 170.46 15.2139C170.143 15.8125 169.796 16.3959 169.411 16.951C168.234 18.6485 166.709 20.1175 164.889 21.0238C163.982 21.4788 163.008 21.7828 162.009 21.9282C161.248 22.0377 160.472 22.0528 159.702 21.9867C159.128 21.8753 158.556 21.6846 157.984 21.4769C157.09 21.154 156.343 20.6707 155.74 20.0249C155.095 19.5302 154.396 19.2074 153.643 19.0563C153.535 19.0355 153.373 19.0242 153.159 19.0242C152.685 19.0242 152.374 19.2074 152.223 19.5737L152.159 19.8323C152.159 20.1344 152.385 20.3818 152.836 20.5744L153.643 20.8973C154.03 21.0483 154.283 21.1673 154.402 21.2522C154.521 21.3391 154.579 21.4901 154.579 21.7035C154.558 22.5645 154.39 23.4198 154.079 24.2695C153.767 25.1192 153.352 25.7913 152.836 26.286C152.685 26.4579 152.427 26.641 152.062 26.8355C151.696 27.03 151.32 27.1263 150.933 27.1263C150.331 27.1263 149.813 26.8676 149.385 26.3521C149.062 25.814 148.902 25.223 148.902 24.5773C148.902 24.2336 148.934 23.8994 148.998 23.5765C149.6 21.0162 150.858 18.9506 152.774 17.3796C153.29 16.9491 153.548 16.5621 153.548 16.2184C153.548 16.0032 153.456 15.837 153.274 15.7181C153.091 15.5991 152.882 15.5406 152.646 15.5406C152.451 15.5406 152.247 15.5953 152.032 15.7011C151.817 15.8087 151.634 15.939 151.483 16.0881C150.965 16.6905 150.61 17.1323 150.418 17.4117C149.19 18.96 148.395 20.2836 148.029 21.3806C148.008 21.424 147.884 21.7356 147.657 22.3171C147.431 22.8987 147.351 23.7597 147.416 24.8983C147.459 25.7158 147.786 26.4843 148.399 27.2056C149.013 27.9268 149.695 28.3196 150.448 28.3838C151.05 28.4272 151.632 28.3573 152.191 28.1742C152.75 27.991 153.235 27.6946 153.643 27.2868C154.76 26.1463 155.461 24.7906 155.74 23.2197C155.74 23.2631 155.793 22.8005 155.901 21.8319C156.396 22.2416 157.047 22.5588 157.853 22.7835C158.112 22.8553 158.374 22.9119 158.637 22.9629C158.692 22.9912 158.752 23.0139 158.816 23.0214C159.923 23.1763 161.059 23.1857 162.171 23.012C163.284 22.8364 164.369 22.4833 165.366 21.9697C167.371 20.9426 168.993 19.3263 170.223 17.5099C170.649 16.8793 171.031 16.2222 171.372 15.5462C171.712 15.6539 172.054 15.7501 172.4 15.8276L175.523 16.5507C176.841 16.8472 178.164 17.1304 179.495 17.3702C176.963 20.293 175.711 21.7356 173.961 23.7521C170.538 27.7003 167.113 31.6446 163.691 35.5909C160.293 39.5088 156.898 43.4305 153.501 47.3484C152.381 48.6399 151.26 49.9314 150.138 51.221C150.083 51.2852 150.031 51.3513 149.978 51.4174C149.987 51.4287 149.999 51.44 150.008 51.4513C150.607 50.8585 151.207 50.2675 151.802 49.6708C156.22 45.2355 160.638 40.8003 165.055 36.3631C169.21 32.1903 173.366 28.0156 177.522 23.8428C179.488 21.8697 181.453 19.8946 183.419 17.9215C185.024 18.0764 186.64 18.1311 188.249 18.1103C190.392 18.0839 192.527 17.931 194.655 17.7308C198.913 17.3324 203.141 16.6716 207.342 15.9012C209.443 15.5198 211.539 15.1101 213.643 14.7457C214.694 14.5644 215.75 14.3963 216.809 14.2774C217.866 14.1679 218.943 14.0716 220 14.2396C218.954 14.0659 217.874 14.149 216.815 14.2491ZM170.706 14.7475C170.332 14.5889 169.966 14.4115 169.613 14.2113C168.706 13.6996 167.877 13.052 167.166 12.2967C166.454 11.5396 165.861 10.6729 165.408 9.74205C164.958 8.8093 164.645 7.80858 164.511 6.78709C164.381 5.76749 164.418 4.72145 164.715 3.75661C165.004 2.79554 165.576 1.9251 166.397 1.40208C166.599 1.26991 166.816 1.15851 167.045 1.07165C167.271 0.98102 167.504 0.914936 167.751 0.865844C168.242 0.765772 168.74 0.729897 169.22 0.792206C169.698 0.854515 170.153 1.01878 170.547 1.27935C170.944 1.53803 171.28 1.89489 171.55 2.30273C172.092 3.12407 172.381 4.12479 172.526 5.13684C172.67 6.15456 172.67 7.19871 172.573 8.23341C172.477 9.27001 172.284 10.2972 172.013 11.3054C171.684 12.4893 171.248 13.6467 170.706 14.7475ZM181.351 17.0945C182.216 16.0617 183.083 15.0289 183.989 14.0319C184.627 13.3314 185.32 12.6781 186.008 12.0248C186.21 11.8322 186.464 11.685 186.719 11.566C186.952 11.4584 187.138 11.6151 187.197 11.9021C186.999 12.242 186.835 12.6083 186.595 12.9179C185.326 14.5512 183.885 16.0202 182.36 17.4117C182.205 17.391 182.05 17.3702 181.895 17.3475C181.678 17.3154 181.459 17.2814 181.242 17.2475C181.278 17.1927 181.312 17.1417 181.351 17.0945ZM181.244 18.2331C181.159 18.2822 180.989 18.2746 180.909 18.218C180.855 18.1783 180.849 17.9952 180.891 17.9083C180.936 17.8139 180.981 17.7195 181.027 17.6232C181.297 17.6647 181.568 17.7025 181.838 17.7403C181.882 17.7459 181.923 17.7516 181.967 17.7573C181.746 17.9385 181.493 18.0896 181.244 18.2331Z" fill="#EF4229"/>
</svg>
