<svg width="70" height="20" viewBox="0 0 70 20" fill="none" xmlns="http://www.w3.org/2000/svg">
<path d="M66.7389 17.4152C68.1122 17.4152 69.0849 17.1699 69.8097 16.6416V14.2454C69.0659 14.7548 68.1694 15.0756 66.9105 15.0756C64.7934 15.0756 63.916 13.4529 63.916 10.8869C63.916 8.18877 64.9841 6.81141 66.9296 6.81141C68.074 6.81141 69.1994 7.20763 69.7907 7.58499V5.09443C69.1612 4.7548 68.074 4.50952 66.5863 4.50952C62.7907 4.50952 60.8261 7.20764 60.8261 10.9812C60.8451 15.1133 62.7716 17.4152 66.7389 17.4152ZM48.1803 16.3208V13.9246C47.2648 14.5473 45.7007 15.0944 44.2702 15.0944C42.0958 15.0944 41.2757 14.0756 41.1422 12.0001H48.3138V10.4529C48.3138 6.13216 46.3874 4.50952 43.431 4.50952C39.807 4.50952 38.0904 7.24537 38.0904 11.0001C38.0904 15.3208 40.2457 17.4152 44.0223 17.4152C45.9105 17.4152 47.3029 16.9057 48.1803 16.3208ZM20.9623 4.73594V9.6416H16.995V4.73594H14.0195V17.1699H16.995V11.9812H20.9623V17.1699H23.9378V4.73594H20.9623ZM37.3465 14.8303H36.0304V4.73594H27.371V5.79254C27.371 8.83028 27.1803 12.7548 26.1313 14.8303H25.1776V20.0001H27.9242V17.1699H34.5808V20.0001H37.3274V14.8303H37.3465ZM57.6599 17.1699H61.0359L56.2675 10.4718L60.4637 4.73594H57.4691L53.2729 10.4718V4.73594H50.2975V17.1699H53.2729V11.0567L57.6599 17.1699ZM43.3547 6.81141C44.8234 6.81141 45.2811 8.01896 45.2811 9.58499V9.83028H41.1422C41.2184 7.84914 41.9432 6.81141 43.3547 6.81141ZM33.055 14.8303H28.8588C29.6789 12.9624 29.9078 9.56612 29.9078 7.41518V7.03782H33.055V14.8303Z" fill="white"/>
<path d="M11.5395 17.1698H8.50681V2.32076H7.15259C4.67303 2.32076 3.37602 3.54717 3.37602 5.37736C3.37602 7.45283 4.27248 8.41509 6.12262 9.64151L7.6485 10.6604L3.26158 17.1698H0L3.94823 11.3585C1.67847 9.75472 0.400545 8.18868 0.400545 5.54717C0.400545 2.24528 2.72752 0 7.13352 0H11.5204L11.5395 17.1698Z" fill="white"/>
</svg>
