<svg width="24" height="24" viewBox="0 0 24 24" fill="none" xmlns="http://www.w3.org/2000/svg">
<g id="Group 34770">
<path id="Vector" d="M17.5165 23.9999C21.0973 23.9999 24.0002 21.0971 24.0002 17.5162C24.0002 13.9353 21.0973 11.0325 17.5165 11.0325C13.9356 11.0325 11.0327 13.9353 11.0327 17.5162C11.0327 21.0971 13.9356 23.9999 17.5165 23.9999Z" fill="#97CF26"/>
<path id="Vector_2" d="M5.32859 20.5341C6.99541 20.5341 8.34663 19.1829 8.34663 17.5161C8.34663 15.8493 6.99541 14.498 5.32859 14.498C3.66177 14.498 2.31055 15.8493 2.31055 17.5161C2.31055 19.1829 3.66177 20.5341 5.32859 20.5341Z" fill="white"/>
<path id="Vector_3" d="M17.516 9.50182C19.8209 9.50182 21.6893 7.63339 21.6893 5.32855C21.6893 3.02371 19.8209 1.15527 17.516 1.15527C15.2112 1.15527 13.3428 3.02371 13.3428 5.32855C13.3428 7.63339 15.2112 9.50182 17.516 9.50182Z" fill="white"/>
<path id="Vector_4" d="M5.32851 10.657C8.27136 10.657 10.657 8.27136 10.657 5.32851C10.657 2.38565 8.27136 0 5.32851 0C2.38565 0 0 2.38565 0 5.32851C0 8.27136 2.38565 10.657 5.32851 10.657Z" fill="#00AAFF"/>
</g>
</svg>
