<svg width="38" height="42" viewBox="0 0 38 42" fill="none" xmlns="http://www.w3.org/2000/svg">
<path fill-rule="evenodd" clip-rule="evenodd" d="M19.8961 41.2283C23.5442 39.3569 37.0832 31.5288 37.0832 18.4166C37.0832 8.42944 28.987 0.333252 18.9998 0.333252C9.01269 0.333252 0.916504 8.42944 0.916504 18.4166C0.916504 31.5288 14.4555 39.3569 18.1036 41.2283C18.6739 41.5208 19.3258 41.5208 19.8961 41.2283ZM18.9998 26.1666C23.28 26.1666 26.7498 22.6968 26.7498 18.4166C26.7498 14.1364 23.28 10.6666 18.9998 10.6666C14.7196 10.6666 11.2498 14.1364 11.2498 18.4166C11.2498 22.6968 14.7196 26.1666 18.9998 26.1666Z" fill="#EF3D23"/>
<path fill-rule="evenodd" clip-rule="evenodd" d="M19.8961 41.2283C23.5442 39.3569 37.0832 31.5288 37.0832 18.4166C37.0832 8.42944 28.987 0.333252 18.9998 0.333252C9.01269 0.333252 0.916504 8.42944 0.916504 18.4166C0.916504 31.5288 14.4555 39.3569 18.1036 41.2283C18.6739 41.5208 19.3258 41.5208 19.8961 41.2283ZM18.9998 26.1666C23.28 26.1666 26.7498 22.6968 26.7498 18.4166C26.7498 14.1364 23.28 10.6666 18.9998 10.6666C14.7196 10.6666 11.2498 14.1364 11.2498 18.4166C11.2498 22.6968 14.7196 26.1666 18.9998 26.1666Z" fill="url(#paint0_linear_172_44)" fill-opacity="0.2"/>
<defs>
<linearGradient id="paint0_linear_172_44" x1="18.9998" y1="0.333252" x2="18.9998" y2="41.4477" gradientUnits="userSpaceOnUse">
<stop stop-color="white"/>
<stop offset="1" stop-color="white" stop-opacity="0"/>
</linearGradient>
</defs>
</svg>
