<svg width="67" height="22" viewBox="0 0 67 22" fill="none" xmlns="http://www.w3.org/2000/svg">
<path d="M28.6 11.5776C28.6 14.7427 26.1239 17.0751 23.0852 17.0751C20.0464 17.0751 17.5703 14.7427 17.5703 11.5776C17.5703 8.39012 20.0464 6.08008 23.0852 6.08008C26.1239 6.08008 28.6 8.39012 28.6 11.5776ZM26.1859 11.5776C26.1859 9.59967 24.7508 8.24637 23.0852 8.24637C21.4196 8.24637 19.9845 9.59967 19.9845 11.5776C19.9845 13.5357 21.4196 14.9088 23.0852 14.9088C24.7508 14.9088 26.1859 13.5332 26.1859 11.5776Z" fill="white"/>
<path d="M40.4985 11.5776C40.4985 14.7427 38.0224 17.0751 34.9836 17.0751C31.9449 17.0751 29.4688 14.7427 29.4688 11.5776C29.4688 8.3926 31.9449 6.08008 34.9836 6.08008C38.0224 6.08008 40.4985 8.39012 40.4985 11.5776ZM38.0843 11.5776C38.0843 9.59967 36.6492 8.24637 34.9836 8.24637C33.318 8.24637 31.8829 9.59967 31.8829 11.5776C31.8829 13.5357 33.318 14.9088 34.9836 14.9088C36.6492 14.9088 38.0843 13.5332 38.0843 11.5776Z" fill="white"/>
<path d="M51.8983 6.41221V16.282C51.8983 20.3419 49.504 22.0001 46.6735 22.0001C44.009 22.0001 42.4053 20.218 41.8006 18.7605L43.9024 17.8856C44.2767 18.7804 45.1938 19.8362 46.671 19.8362C48.4828 19.8362 49.6056 18.7184 49.6056 16.6141V15.8234H49.5214C48.981 16.4902 47.94 17.0726 46.6264 17.0726C43.8776 17.0726 41.3594 14.6783 41.3594 11.5974C41.3594 8.49422 43.8776 6.08008 46.6264 6.08008C47.9376 6.08008 48.9786 6.66255 49.5214 7.30946H49.6056V6.41469H51.8983V6.41221ZM49.7767 11.5974C49.7767 9.66164 48.4853 8.24637 46.842 8.24637C45.1764 8.24637 43.781 9.66164 43.781 11.5974C43.781 13.5134 45.1764 14.9088 46.842 14.9088C48.4853 14.9088 49.7767 13.5134 49.7767 11.5974Z" fill="white"/>
<path d="M55.6789 0.626953V16.7378H53.3242V0.626953H55.6789Z" fill="white"/>
<path d="M64.8534 13.3868L66.7272 14.636C66.1224 15.5307 64.665 17.0724 62.1468 17.0724C59.0238 17.0724 56.6914 14.6583 56.6914 11.5749C56.6914 8.30564 59.0436 6.07739 61.8766 6.07739C64.7295 6.07739 66.1249 8.34778 66.581 9.57468L66.8313 10.1993L59.4823 13.243C60.0449 14.346 60.9199 14.9086 62.1468 14.9086C63.3762 14.9086 64.2288 14.3038 64.8534 13.3868ZM59.0857 11.4088L63.9983 9.36896C63.7281 8.68239 62.9151 8.20402 61.9584 8.20402C60.7315 8.20402 59.0238 9.28717 59.0857 11.4088Z" fill="white"/>
<path d="M8.65771 10.1473V7.81499H16.5173C16.5942 8.22148 16.6338 8.70233 16.6338 9.22283C16.6338 10.9727 16.1554 13.1365 14.6138 14.6782C13.1142 16.2397 11.1983 17.0725 8.66019 17.0725C3.95583 17.0725 0 13.2406 0 8.53626C0 3.8319 3.95583 0 8.66019 0C11.2627 0 13.1167 1.02118 14.5097 2.35218L12.8639 3.99796C11.865 3.06106 10.5117 2.33235 8.65771 2.33235C5.22239 2.33235 2.5356 5.10094 2.5356 8.53626C2.5356 11.9716 5.22239 14.7402 8.65771 14.7402C10.886 14.7402 12.155 13.8454 12.968 13.0324C13.6273 12.3731 14.061 11.4313 14.2321 10.1449L8.65771 10.1473Z" fill="white"/>
</svg>
