<svg width="32" height="32" viewBox="0 0 32 32" fill="none" xmlns="http://www.w3.org/2000/svg">
<g clip-path="url(#clip0_535_1390)">
<path d="M16.0079 0.242188C9.4282 0.242188 7.5039 0.248975 7.12985 0.280006C5.77959 0.392248 4.93937 0.604854 4.024 1.06061C3.31857 1.41091 2.76222 1.81698 2.21315 2.38619C1.21318 3.42425 0.607136 4.70134 0.387749 6.2194C0.281085 6.95637 0.250056 7.10667 0.243753 10.871C0.241329 12.1258 0.243753 13.7772 0.243753 15.9922C0.243753 22.5668 0.251026 24.4892 0.28254 24.8626C0.391628 26.1765 0.597682 27.0032 1.03403 27.9074C1.86795 29.6383 3.46063 30.9377 5.33693 31.4226C5.98661 31.5898 6.70416 31.6819 7.62535 31.7256C8.01564 31.7426 11.9937 31.7547 15.9742 31.7547C19.9547 31.7547 23.9352 31.7498 24.3158 31.7304C25.3824 31.6803 26.0018 31.5971 26.6866 31.4201C28.575 30.9329 30.1386 29.6529 30.9895 27.8977C31.4174 27.0153 31.6343 26.1571 31.7325 24.9118C31.7538 24.6402 31.7628 20.3113 31.7628 15.9881C31.7628 11.6642 31.7531 7.34328 31.7318 7.07176C31.6324 5.80631 31.4154 4.9554 30.9737 4.05601C30.6113 3.31976 30.2089 2.76995 29.6247 2.20776C28.582 1.21188 27.3069 0.605824 25.7875 0.386672C25.0512 0.280248 24.9046 0.248733 21.1374 0.242188H16.0079Z" fill="url(#paint0_radial_535_1390)"/>
<path d="M16.0079 0.242188C9.4282 0.242188 7.5039 0.248975 7.12985 0.280006C5.77959 0.392248 4.93937 0.604854 4.024 1.06061C3.31857 1.41091 2.76222 1.81698 2.21315 2.38619C1.21318 3.42425 0.607136 4.70134 0.387749 6.2194C0.281085 6.95637 0.250056 7.10667 0.243753 10.871C0.241329 12.1258 0.243753 13.7772 0.243753 15.9922C0.243753 22.5668 0.251026 24.4892 0.28254 24.8626C0.391628 26.1765 0.597682 27.0032 1.03403 27.9074C1.86795 29.6383 3.46063 30.9377 5.33693 31.4226C5.98661 31.5898 6.70416 31.6819 7.62535 31.7256C8.01564 31.7426 11.9937 31.7547 15.9742 31.7547C19.9547 31.7547 23.9352 31.7498 24.3158 31.7304C25.3824 31.6803 26.0018 31.5971 26.6866 31.4201C28.575 30.9329 30.1386 29.6529 30.9895 27.8977C31.4174 27.0153 31.6343 26.1571 31.7325 24.9118C31.7538 24.6402 31.7628 20.3113 31.7628 15.9881C31.7628 11.6642 31.7531 7.34328 31.7318 7.07176C31.6324 5.80631 31.4154 4.9554 30.9737 4.05601C30.6113 3.31976 30.2089 2.76995 29.6247 2.20776C28.582 1.21188 27.3069 0.605824 25.7875 0.386672C25.0512 0.280248 24.9046 0.248733 21.1374 0.242188H16.0079Z" fill="url(#paint1_radial_535_1390)"/>
<path d="M16.0003 4.36377C12.8401 4.36377 12.4435 4.37759 11.2023 4.43407C9.9636 4.4908 9.11805 4.68692 8.37819 4.97468C7.61288 5.27189 6.96369 5.66947 6.31692 6.3165C5.66967 6.96328 5.2721 7.6125 4.97393 8.37759C4.68545 9.11771 4.4891 9.96353 4.43334 11.2018C4.37783 12.443 4.36328 12.8399 4.36328 16.0001C4.36328 19.1604 4.37734 19.5558 4.43358 20.797C4.49055 22.0358 4.68667 22.8813 4.97417 23.6212C5.27162 24.3866 5.66918 25.0358 6.31619 25.6826C6.96272 26.3298 7.61191 26.7284 8.37674 27.0256C9.11708 27.3133 9.96287 27.5095 11.2014 27.5662C12.4426 27.6227 12.8389 27.6365 15.9988 27.6365C19.1592 27.6365 19.5546 27.6227 20.7958 27.5662C22.0345 27.5095 22.881 27.3133 23.6214 27.0256C24.3864 26.7284 25.0347 26.3298 25.6812 25.6826C26.3284 25.0358 26.726 24.3866 27.0242 23.6215C27.3102 22.8813 27.5066 22.0355 27.5648 20.7972C27.6205 19.556 27.6351 19.1604 27.6351 16.0001C27.6351 12.8399 27.6205 12.4433 27.5648 11.2021C27.5066 9.96328 27.3102 9.11771 27.0242 8.37783C26.726 7.6125 26.3284 6.96328 25.6812 6.3165C25.0339 5.66922 24.3867 5.27165 23.6206 4.97468C22.8788 4.68692 22.0328 4.4908 20.7941 4.43407C19.5529 4.37759 19.1577 4.36377 15.9966 4.36377H16.0003ZM14.9564 6.46074C15.2662 6.46025 15.6119 6.46074 16.0003 6.46074C19.1071 6.46074 19.4753 6.47189 20.7022 6.52765C21.8367 6.57953 22.4524 6.7691 22.8626 6.92838C23.4056 7.13928 23.7928 7.39141 24.1998 7.79868C24.607 8.20595 24.8591 8.59383 25.0705 9.13686C25.2298 9.54656 25.4196 10.1623 25.4712 11.2969C25.527 12.5235 25.5391 12.892 25.5391 15.9975C25.5391 19.1029 25.527 19.4714 25.4712 20.6981C25.4194 21.8326 25.2298 22.4484 25.0705 22.8581C24.8596 23.4011 24.607 23.7878 24.1998 24.1948C23.7925 24.6021 23.4059 24.8542 22.8626 25.0651C22.4529 25.2251 21.8367 25.4142 20.7022 25.4661C19.4756 25.5218 19.1071 25.534 16.0003 25.534C12.8932 25.534 12.525 25.5218 11.2983 25.4661C10.1638 25.4137 9.54809 25.2241 9.13768 25.0649C8.59467 24.854 8.2068 24.6018 7.79954 24.1946C7.39228 23.7873 7.14017 23.4004 6.92878 22.8571C6.76951 22.4474 6.5797 21.8316 6.52806 20.6971C6.47231 19.4704 6.46116 19.102 6.46116 15.9946C6.46116 12.8872 6.47231 12.5206 6.52806 11.294C6.57994 10.1594 6.76951 9.54365 6.92878 9.13347C7.13968 8.59044 7.39228 8.20256 7.79954 7.79528C8.2068 7.38801 8.59467 7.13589 9.13768 6.9245C9.54785 6.7645 10.1638 6.57541 11.2983 6.52328C12.3718 6.4748 12.7878 6.46025 14.9564 6.45783V6.46074ZM22.2115 8.39286C21.4406 8.39286 20.8151 9.01759 20.8151 9.78874C20.8151 10.5596 21.4406 11.1851 22.2115 11.1851C22.9824 11.1851 23.6078 10.5596 23.6078 9.78874C23.6078 9.01783 22.9824 8.39238 22.2115 8.39238V8.39286ZM16.0003 10.0244C12.7002 10.0244 10.0247 12.7 10.0247 16.0001C10.0247 19.3003 12.7002 21.9747 16.0003 21.9747C19.3003 21.9747 21.9749 19.3003 21.9749 16.0001C21.9749 12.7 19.3 10.0244 16 10.0244H16.0003ZM16.0003 12.1213C18.1423 12.1213 19.8789 13.8578 19.8789 16.0001C19.8789 18.1422 18.1423 19.8789 16.0003 19.8789C13.858 19.8789 12.1216 18.1422 12.1216 16.0001C12.1216 13.8578 13.858 12.1213 16.0003 12.1213Z" fill="white"/>
</g>
<defs>
<radialGradient id="paint0_radial_535_1390" cx="0" cy="0" r="1" gradientUnits="userSpaceOnUse" gradientTransform="translate(8.61525 34.1818) rotate(-90) scale(31.2312 29.0545)">
<stop stop-color="#FFDD55"/>
<stop offset="0.1" stop-color="#FFDD55"/>
<stop offset="0.5" stop-color="#FF543E"/>
<stop offset="1" stop-color="#C837AB"/>
</radialGradient>
<radialGradient id="paint1_radial_535_1390" cx="0" cy="0" r="1" gradientUnits="userSpaceOnUse" gradientTransform="translate(-5.03711 2.51229) rotate(78.678) scale(13.9606 57.5591)">
<stop stop-color="#3771C8"/>
<stop offset="0.128" stop-color="#3771C8"/>
<stop offset="1" stop-color="#6600FF" stop-opacity="0"/>
</radialGradient>
<clipPath id="clip0_535_1390">
<rect width="32" height="32" fill="white"/>
</clipPath>
</defs>
</svg>
