<svg width="24" height="24" viewBox="0 0 24 24" fill="none" xmlns="http://www.w3.org/2000/svg">
<g id="Yandex_Maps_icon 1">
<path id="Vector" d="M12 1.5C7.0293 1.5 3 5.5293 3 10.5C3 12.9845 4.00665 15.234 5.63475 16.8626C7.2633 18.492 11.1 20.85 11.325 23.325C11.3587 23.6961 11.6274 24 12 24C12.3726 24 12.6413 23.6961 12.675 23.325C12.9 20.85 16.7367 18.492 18.3652 16.8626C19.9933 15.234 21 12.9845 21 10.5C21 5.5293 16.9707 1.5 12 1.5Z" fill="white"/>
<path id="Vector_2" d="M12.0001 13.6503C13.7398 13.6503 15.1501 12.24 15.1501 10.5003C15.1501 8.76064 13.7398 7.35034 12.0001 7.35034C10.2604 7.35034 8.8501 8.76064 8.8501 10.5003C8.8501 12.24 10.2604 13.6503 12.0001 13.6503Z" fill="#FF4433"/>
</g>
</svg>
