<svg width="32" height="32" viewBox="0 0 32 32" fill="none" xmlns="http://www.w3.org/2000/svg">
<rect width="32" height="32" rx="6" fill="#2787F5"/>
<path d="M22.9903 17.5814C23.6727 18.2477 24.3929 18.8745 25.0049 19.6079C25.2753 19.9338 25.5312 20.2701 25.727 20.6483C26.0045 21.186 25.7532 21.7777 25.2711 21.8098L22.2742 21.8084C21.5012 21.8726 20.8846 21.5614 20.3661 21.0329C19.9512 20.6103 19.567 20.1605 19.168 19.7236C19.0044 19.545 18.8332 19.377 18.6287 19.2442C18.2196 18.9786 17.8645 19.0599 17.6307 19.4866C17.3926 19.9206 17.3386 20.4012 17.3152 20.8848C17.2831 21.5905 17.0697 21.7761 16.3609 21.8084C14.8459 21.8798 13.4082 21.6506 12.0725 20.8864C10.895 20.2127 9.98188 19.2616 9.1871 18.1848C7.63965 16.0881 6.45461 13.7842 5.38954 11.4157C5.1498 10.8821 5.32512 10.5957 5.91389 10.5855C6.89157 10.5666 7.86911 10.5679 8.84794 10.5842C9.24529 10.59 9.50835 10.8179 9.66178 11.1933C10.1907 12.4939 10.838 13.7313 11.6504 14.8783C11.8667 15.1837 12.0873 15.4891 12.4015 15.704C12.749 15.942 13.0137 15.8631 13.1772 15.476C13.2809 15.2305 13.3263 14.9661 13.3497 14.7031C13.4272 13.7986 13.4374 12.8956 13.3015 11.9942C13.2181 11.4317 12.9013 11.0675 12.3399 10.9611C12.0535 10.9068 12.0961 10.8002 12.2348 10.6367C12.4757 10.3547 12.7023 10.1792 13.1539 10.1792H16.5409C17.0741 10.2844 17.1925 10.524 17.2655 11.0605L17.2684 14.8227C17.2626 15.0304 17.3721 15.6468 17.7463 15.7842C18.0457 15.8821 18.243 15.6426 18.4227 15.4527C19.2336 14.592 19.8124 13.5749 20.3294 12.5216C20.5589 12.0585 20.7562 11.5776 20.9474 11.097C21.0891 10.7404 21.3114 10.5649 21.7131 10.5727L24.9728 10.5756C25.0695 10.5756 25.1673 10.577 25.2609 10.593C25.8102 10.6867 25.9607 10.923 25.791 11.4593C25.5237 12.3009 25.0036 13.0022 24.4951 13.7067C23.9515 14.4589 23.3701 15.1854 22.831 15.9421C22.3357 16.633 22.375 16.9813 22.9903 17.5814Z" fill="white"/>
</svg>
