<svg width="32" height="32" viewBox="0 0 32 32" fill="none" xmlns="http://www.w3.org/2000/svg">
<rect width="32" height="32" rx="6" fill="#FFAFAF"/>
<path d="M26.068 10.9495C25.9478 10.5063 25.7138 10.1022 25.389 9.7775C25.0643 9.45277 24.6602 9.21869 24.217 9.09854C22.573 8.66504 16 8.66504 16 8.66504C16 8.66504 9.427 8.66504 7.783 9.09854C6.883 9.34004 6.175 10.0495 5.932 10.9495C5.5 12.592 5.5 16 5.5 16C5.5 16 5.5 19.4245 5.932 21.0505C6.175 21.9505 6.8845 22.66 7.783 22.9015C9.427 23.335 16 23.335 16 23.335C16 23.335 22.573 23.335 24.217 22.9015C24.6602 22.7814 25.0643 22.5473 25.389 22.2226C25.7138 21.8979 25.9478 21.4938 26.068 21.0505C26.5 19.408 26.5 16 26.5 16C26.5 16 26.5 12.592 26.068 10.9495Z" fill="#FF0000"/>
<path d="M13.8896 19.165L19.3556 16.018L13.8896 12.853V19.165Z" fill="white"/>
</svg>
